<svg xmlns="http://www.w3.org/2000/svg" version="1.1" xmlns:xlink="http://www.w3.org/1999/xlink" xmlns:svgjs="http://svgjs.dev/svgjs" width="1500" height="253" viewBox="0 0 1500 253"><g transform="matrix(1,0,0,1,-0.9090909090909918,-1.734258271494582)"><svg viewBox="0 0 396 67" data-background-color="#ffffff" preserveAspectRatio="xMidYMid meet" height="253" width="1500" xmlns="http://www.w3.org/2000/svg" xmlns:xlink="http://www.w3.org/1999/xlink"><g id="tight-bounds" transform="matrix(1,0,0,1,0.2400000000000091,0.45926997703611505)"><svg viewBox="0 0 395.52 66.08146004592776" height="66.08146004592776" width="395.52"><g><svg viewBox="0 0 588.9274687103502 98.39499138736949" height="66.08146004592776" width="395.52"><g><rect width="6.420667052781543" height="71.5535212332173" x="170.17877272358555" y="13.420735077076095" fill="#0e5ddd" opacity="1" stroke-width="0" stroke="transparent" fill-opacity="1" class="rect-yte-0" data-fill-palette-color="primary" rx="1%" id="yte-0" data-palette-color="#0e5ddd"></rect></g><g transform="matrix(1,0,0,1,193.4074687103502,13.598728910989564)"><svg viewBox="0 0 395.52 71.19753356539036" height="71.19753356539036" width="395.52"><g id="textblocktransform"><svg viewBox="0 0 395.52 71.19753356539036" height="71.19753356539036" width="395.52" id="textblock"><g><svg viewBox="0 0 395.52 71.19753356539036" height="71.19753356539036" width="395.52"><g transform="matrix(1,0,0,1,0,0)"><svg width="395.52" viewBox="3.55 -35.6 202.98999999999998 36.2" height="71.19753356539036" data-palette-color="#0e5ddd"><g class="wordmark-text-0" data-fill-palette-color="primary" id="text-0"><path d="M27.7-25.05L27.7-25.05Q27.7-22.2 26.73-19.93 25.75-17.65 23.93-16.07 22.1-14.5 19.5-13.65 16.9-12.8 13.65-12.8L13.65-12.8Q12.8-12.8 12.03-12.85 11.25-12.9 10.45-13L10.45-13Q10.45-9.15 10.48-6.08 10.5-3 10.6 0L10.6 0 3.55 0Q3.65-2.4 3.73-4.23 3.8-6.05 3.85-8.03 3.9-10 3.93-12.45 3.95-14.9 3.95-18.55L3.95-18.55Q3.95-22.75 3.9-26.6 3.85-30.45 3.7-34.5L3.7-34.5Q4.8-34.7 6.1-34.9 7.4-35.1 8.78-35.25 10.15-35.4 11.53-35.48 12.9-35.55 14.2-35.55L14.2-35.55Q18.35-35.55 20.98-34.63 23.6-33.7 25.1-32.23 26.6-30.75 27.15-28.88 27.7-27 27.7-25.05ZM10.45-17.8L10.45-17.35Q11.15-17.2 11.9-17.15 12.65-17.1 13.45-17.1L13.45-17.1Q17.2-17.1 19.15-18.93 21.1-20.75 21.1-24.3L21.1-24.3Q21.1-27.6 19.48-29.35 17.85-31.1 14.85-31.1L14.85-31.1Q13.85-31.1 12.78-30.93 11.7-30.75 10.55-30.45L10.55-30.45Q10.45-28.05 10.45-25.05 10.45-22.05 10.45-17.8L10.45-17.8ZM46.1-31.1L46.1-31.1Q42.2-31.1 39.92-27.55 37.65-24 37.65-17.35L37.65-17.35Q37.65-10.75 39.57-7.28 41.5-3.8 45.85-3.8L45.85-3.8Q47.75-3.8 49.32-4.78 50.9-5.75 52.02-7.6 53.15-9.45 53.77-12.05 54.4-14.65 54.4-17.95L54.4-17.95Q54.4-21.1 54.02-23.55 53.65-26 52.7-27.68 51.75-29.35 50.15-30.23 48.55-31.1 46.1-31.1ZM30.8-17.2L30.8-17.2Q30.8-21.25 31.9-24.65 33-28.05 35.07-30.48 37.15-32.9 40.05-34.25 42.95-35.6 46.55-35.6L46.55-35.6Q50-35.6 52.72-34.38 55.45-33.15 57.32-30.9 59.2-28.65 60.2-25.45 61.2-22.25 61.2-18.35L61.2-18.35Q61.2-14.25 60.07-10.78 58.95-7.3 56.9-4.78 54.85-2.25 51.95-0.83 49.05 0.6 45.5 0.6L45.5 0.6Q42.05 0.6 39.32-0.73 36.6-2.05 34.7-4.42 32.8-6.8 31.8-10.05 30.8-13.3 30.8-17.2ZM80.4-31.1L80.4-31.1Q76.5-31.1 74.22-27.55 71.95-24 71.95-17.35L71.95-17.35Q71.95-10.75 73.87-7.28 75.8-3.8 80.15-3.8L80.15-3.8Q82.05-3.8 83.62-4.78 85.2-5.75 86.32-7.6 87.45-9.45 88.07-12.05 88.7-14.65 88.7-17.95L88.7-17.95Q88.7-21.1 88.32-23.55 87.95-26 87-27.68 86.05-29.35 84.45-30.23 82.85-31.1 80.4-31.1ZM65.1-17.2L65.1-17.2Q65.1-21.25 66.2-24.65 67.3-28.05 69.37-30.48 71.45-32.9 74.35-34.25 77.25-35.6 80.85-35.6L80.85-35.6Q84.3-35.6 87.02-34.38 89.75-33.15 91.62-30.9 93.5-28.65 94.5-25.45 95.5-22.25 95.5-18.35L95.5-18.35Q95.5-14.25 94.37-10.78 93.25-7.3 91.2-4.78 89.15-2.25 86.25-0.83 83.35 0.6 79.8 0.6L79.8 0.6Q76.35 0.6 73.62-0.73 70.9-2.05 69-4.42 67.1-6.8 66.1-10.05 65.1-13.3 65.1-17.2ZM120.99-4.9L120.99 0 100.99 0Q101.04-2.4 101.12-4.23 101.19-6.05 101.24-8.03 101.29-10 101.34-12.55 101.39-15.1 101.39-18.95L101.39-18.95Q101.39-22.8 101.34-26.63 101.29-30.45 101.14-34.5L101.14-34.5 108.29-35Q108.14-33.4 108.07-31.73 107.99-30.05 107.97-28.03 107.94-26 107.92-23.5 107.89-21 107.89-17.8L107.89-17.8Q107.89-13.7 107.89-10.65 107.89-7.6 107.94-4.9L107.94-4.9 120.99-4.9ZM149.24-25.05L149.24-25.05Q149.24-22.2 148.27-19.93 147.29-17.65 145.47-16.07 143.64-14.5 141.04-13.65 138.44-12.8 135.19-12.8L135.19-12.8Q134.34-12.8 133.57-12.85 132.79-12.9 131.99-13L131.99-13Q131.99-9.15 132.02-6.08 132.04-3 132.14 0L132.14 0 125.09 0Q125.19-2.4 125.27-4.23 125.34-6.05 125.39-8.03 125.44-10 125.47-12.45 125.49-14.9 125.49-18.55L125.49-18.55Q125.49-22.75 125.44-26.6 125.39-30.45 125.24-34.5L125.24-34.5Q126.34-34.7 127.64-34.9 128.94-35.1 130.32-35.25 131.69-35.4 133.07-35.48 134.44-35.55 135.74-35.55L135.74-35.55Q139.89-35.55 142.52-34.63 145.14-33.7 146.64-32.23 148.14-30.75 148.69-28.88 149.24-27 149.24-25.05ZM131.99-17.8L131.99-17.35Q132.69-17.2 133.44-17.15 134.19-17.1 134.99-17.1L134.99-17.1Q138.74-17.1 140.69-18.93 142.64-20.75 142.64-24.3L142.64-24.3Q142.64-27.6 141.02-29.35 139.39-31.1 136.39-31.1L136.39-31.1Q135.39-31.1 134.32-30.93 133.24-30.75 132.09-30.45L132.09-30.45Q131.99-28.05 131.99-25.05 131.99-22.05 131.99-17.8L131.99-17.8ZM157.84 0L150.99 0.6Q152.34-4.45 153.71-9.08 155.09-13.7 156.59-18.05 158.09-22.4 159.81-26.6 161.54-30.8 163.54-35L163.54-35 169.79-35.6Q171.79-31.45 173.49-27.3 175.19-23.15 176.71-18.78 178.24-14.4 179.61-9.75 180.99-5.1 182.34 0L182.34 0 175.54 0.6Q174.84-2.05 174.14-4.73 173.44-7.4 172.74-10.1L172.74-10.1 160.39-10.1Q159.69-7.65 159.04-5.15 158.39-2.65 157.84 0L157.84 0ZM166.69-29.35L166.69-29.35Q163.79-22.25 161.64-14.7L161.64-14.7 171.49-14.7Q170.39-18.45 169.21-22.15 168.04-25.85 166.69-29.35ZM206.54-4.9L206.54 0 186.54 0Q186.59-2.4 186.66-4.23 186.74-6.05 186.79-8.03 186.84-10 186.89-12.55 186.94-15.1 186.94-18.95L186.94-18.95Q186.94-22.8 186.89-26.63 186.84-30.45 186.69-34.5L186.69-34.5 193.84-35Q193.69-33.4 193.61-31.73 193.54-30.05 193.51-28.03 193.49-26 193.46-23.5 193.44-21 193.44-17.8L193.44-17.8Q193.44-13.7 193.44-10.65 193.44-7.6 193.49-4.9L193.49-4.9 206.54-4.9Z" fill="#0e5ddd" data-fill-palette-color="primary"></path></g></svg></g></svg></g></svg></g></svg></g><g><svg viewBox="0 0 153.37074378960247 98.39499138736949" height="98.39499138736949" width="153.37074378960247"><g><svg xmlns="http://www.w3.org/2000/svg" xmlns:xlink="http://www.w3.org/1999/xlink" version="1.1" x="0" y="0" viewBox="2.953 19.817 94.094 60.36600000000001" enable-background="new 0 0 100 100" xml:space="preserve" height="98.39499138736949" width="153.37074378960247" class="icon-icon-0" data-fill-palette-color="accent" id="icon-0"><polygon points="34.318,69.084 5.173,54.513 2.953,55.621 34.318,71.304 97.047,39.939 94.827,38.829 " fill="#0e5ddd" data-fill-palette-color="accent"></polygon><polygon points="34.318,73.523 5.173,58.952 2.953,60.061 34.318,75.743 97.047,44.379 94.827,43.269 " fill="#0e5ddd" data-fill-palette-color="accent"></polygon><polygon points="34.318,77.963 5.173,63.392 2.953,64.501 34.318,80.183 97.047,48.818 94.827,47.707 " fill="#0e5ddd" data-fill-palette-color="accent"></polygon><path d="M65.683 19.817L2.953 51.182 34.318 66.864 97.047 35.5zM57.84 47.262C53.513 49.427 46.491 49.427 42.16 47.262 37.828 45.096 37.828 41.585 42.16 39.42 46.489 37.256 53.511 37.256 57.84 39.42 62.172 41.585 62.172 45.096 57.84 47.262" fill="#0e5ddd" data-fill-palette-color="accent"></path></svg></g></svg></g></svg></g><defs></defs></svg><rect width="395.52" height="66.08146004592776" fill="none" stroke="none" visibility="hidden"></rect></g></svg></g></svg>