<?xml version="1.0" standalone="no"?>
<!DOCTYPE svg PUBLIC "-//W3C//DTD SVG 20010904//EN"
 "http://www.w3.org/TR/2001/REC-SVG-20010904/DTD/svg10.dtd">
<svg version="1.0" xmlns="http://www.w3.org/2000/svg"
 width="700.000000pt" height="700.000000pt" viewBox="0 0 700.000000 700.000000"
 preserveAspectRatio="xMidYMid meet">
<metadata>
Created by potrace 1.14, written by Peter Selinger 2001-2017
</metadata>
<g transform="translate(0.000000,700.000000) scale(0.100000,-0.100000)"
fill="#000000" stroke="none">
<path d="M3474 6985 c-1 -5 -5 -131 -9 -280 -3 -148 -8 -294 -11 -322 -3 -29
-1 -53 3 -54 28 -3 311 -11 356 -10 25 1 27 4 27 46 0 29 -5 45 -12 46 -7 1
-56 3 -108 4 -52 2 -103 3 -114 4 -18 1 -18 11 -12 254 4 138 9 269 11 289 l4
38 -66 -3 c-36 -1 -67 -6 -69 -12z"/>
<path d="M2265 6781 c-139 -37 -223 -140 -227 -278 -4 -115 45 -243 123 -323
64 -66 109 -85 199 -85 115 1 198 51 250 153 28 54 37 156 21 234 -26 122
-115 250 -199 285 -44 18 -125 25 -167 14z m112 -106 c85 -56 167 -285 138
-386 -26 -92 -125 -136 -202 -90 -39 24 -83 87 -117 168 -68 163 -41 290 69
322 37 11 82 5 112 -14z"/>
<path d="M4705 6571 c-43 -102 -102 -237 -132 -299 -49 -105 -59 -132 -49
-132 2 0 28 -11 58 -24 l55 -25 49 115 c26 63 48 114 50 114 1 0 28 -12 60
-26 85 -37 187 -38 243 -1 98 65 142 189 97 276 -34 64 -147 132 -284 170
l-68 19 -79 -187z m240 40 c71 -32 93 -74 75 -141 -6 -23 -26 -57 -43 -76 -26
-29 -39 -35 -73 -36 -22 0 -62 9 -87 20 -53 24 -53 13 3 137 18 39 36 80 41
93 10 27 31 28 84 3z"/>
<path d="M1065 5991 c-58 -16 -81 -29 -128 -74 -131 -126 -119 -314 29 -460
157 -155 339 -169 459 -35 84 94 97 209 37 330 -79 161 -268 274 -397 239z
m128 -137 c112 -74 207 -204 207 -285 0 -47 -35 -99 -84 -123 -34 -17 -45 -18
-84 -7 -55 14 -116 56 -186 126 -114 115 -127 228 -36 302 45 37 115 32 183
-13z"/>
<path d="M6050 5869 c-19 -5 -44 -14 -55 -18 -11 -5 -58 -24 -105 -42 -47 -17
-105 -41 -130 -52 -48 -21 -322 -157 -329 -163 -8 -8 95 -92 104 -84 6 4 44
26 86 48 l76 42 69 -73 c38 -40 75 -80 82 -89 11 -14 5 -29 -44 -104 l-56 -87
46 -45 c27 -26 51 -41 56 -36 18 19 150 244 201 344 64 124 129 267 129 284 0
13 -76 87 -88 85 -4 0 -23 -5 -42 -10z m-65 -236 c-37 -65 -69 -120 -72 -123
-5 -5 -123 121 -123 131 0 4 6 9 13 12 178 79 242 105 246 102 2 -3 -26 -58
-64 -122z"/>
<path d="M255 4804 c-43 -24 -73 -60 -105 -128 -33 -66 -76 -235 -63 -246 4
-4 99 -37 211 -74 112 -37 249 -85 305 -106 56 -22 104 -36 108 -32 7 8 39
101 39 113 0 4 -51 24 -112 45 -62 20 -114 38 -116 39 -1 1 6 26 16 56 35 103
25 209 -25 263 -69 75 -190 107 -258 70z m142 -133 c59 -27 77 -59 70 -124 -3
-29 -10 -64 -17 -78 l-12 -26 -101 36 c-147 52 -144 49 -129 108 24 94 95 126
189 84z"/>
<path d="M6770 4761 c-22 -13 -275 -107 -435 -162 -77 -26 -141 -52 -143 -57
-1 -5 25 -81 58 -170 33 -89 60 -167 60 -172 0 -14 22 -12 63 5 l35 15 -25 67
c-13 38 -33 88 -43 113 -10 25 -15 48 -11 53 8 9 303 120 442 167 l96 32 -26
59 c-25 58 -39 68 -71 50z"/>
<path d="M2963 4016 c-596 -298 -1087 -546 -1093 -552 -6 -6 173 -101 535
-283 l545 -273 1101 551 1100 550 -550 276 c-303 151 -552 275 -553 274 -2 0
-490 -245 -1085 -543z m696 -106 c175 -40 269 -145 211 -236 -21 -32 -69 -66
-128 -90 -81 -32 -103 -36 -230 -40 -162 -4 -284 32 -359 106 -130 128 72 282
362 275 50 -2 114 -8 144 -15z"/>
<path d="M4008 3360 l-1058 -529 -510 256 -510 255 -41 -19 -41 -19 551 -276
551 -276 1095 547 c602 300 1094 549 1095 553 0 8 -54 38 -67 38 -4 -1 -484
-239 -1065 -530z"/>
<path d="M4013 3207 l-1063 -532 -512 255 -513 256 -32 -16 c-18 -8 -33 -18
-33 -21 0 -4 245 -130 545 -280 l546 -273 1099 550 1100 550 -37 21 -38 21
-1062 -531z"/>
<path d="M297 3658 c-56 -12 -89 -32 -131 -78 -50 -56 -69 -102 -69 -175 -1
-75 27 -141 82 -193 102 -97 260 -93 362 8 184 184 12 494 -244 438z"/>
<path d="M6583 3655 c-84 -25 -158 -100 -181 -185 -31 -117 33 -252 145 -305
48 -24 142 -28 198 -9 213 73 232 381 29 480 -62 30 -130 37 -191 19z"/>
<path d="M4008 3049 l-1058 -529 -510 255 -509 255 -43 -19 -43 -18 553 -276
553 -276 1094 547 c602 301 1095 550 1095 553 0 6 -63 40 -72 38 -1 0 -479
-238 -1060 -530z"/>
<path d="M660 2575 c-113 -40 -249 -86 -302 -102 -54 -15 -98 -32 -97 -38 0
-5 9 -32 18 -60 22 -60 21 -60 153 -12 l96 36 12 -32 c67 -182 161 -245 305
-206 128 35 171 150 115 312 -27 78 -72 170 -85 173 -5 1 -102 -31 -215 -71z
m213 -118 c38 -73 20 -134 -48 -167 -80 -39 -149 -20 -184 49 -42 84 -43 83
77 123 59 20 113 36 121 35 8 -1 23 -19 34 -40z"/>
<path d="M6662 2437 c-11 -29 -30 -80 -42 -114 -13 -35 -27 -63 -32 -63 -10 0
-425 154 -485 180 l-43 19 -16 -57 c-9 -31 -17 -61 -18 -65 0 -5 67 -32 149
-61 117 -42 325 -121 451 -173 11 -4 26 32 104 249 l39 107 -44 14 -44 15 -19
-51z"/>
<path d="M5503 1564 c-38 -49 -39 -57 -17 -110 55 -132 297 -575 314 -573 3 0
22 22 42 49 l37 48 -54 84 -53 83 31 35 c18 19 54 58 81 87 l49 51 92 -49 93
-50 36 50 c20 27 36 51 36 53 0 7 -276 143 -363 180 -73 30 -180 70 -252 93
l-40 12 -32 -43z m237 -151 c63 -30 110 -57 105 -61 -6 -4 -35 -34 -67 -68
l-56 -61 -45 81 c-50 90 -87 162 -87 170 0 8 23 -2 150 -61z"/>
<path d="M1256 1579 c-100 -40 -192 -124 -242 -221 -23 -43 -28 -66 -28 -128
-1 -64 3 -82 26 -122 110 -187 344 -194 520 -16 110 112 141 235 85 344 -29
58 -90 116 -144 140 -57 24 -158 26 -217 3z m221 -106 c63 -42 82 -115 48
-186 -25 -53 -135 -159 -199 -191 -93 -47 -161 -41 -216 19 -19 20 -25 37 -25
73 1 63 26 111 97 182 115 116 220 152 295 103z"/>
<path d="M4683 944 c-43 -13 -183 -83 -216 -108 -16 -13 -15 -18 17 -87 65
-142 89 -195 150 -344 35 -82 65 -158 69 -167 4 -13 11 -15 24 -10 10 4 37 16
61 26 23 10 42 19 42 21 0 2 -22 53 -50 114 -43 99 -47 113 -32 118 93 31 181
104 202 169 27 82 -12 206 -81 254 -37 27 -124 33 -186 14z m105 -109 c33 -28
61 -96 55 -135 -2 -14 -12 -36 -22 -50 -20 -27 -87 -70 -111 -70 -14 0 -93
169 -102 216 -4 22 73 64 118 64 20 0 44 -10 62 -25z"/>
<path d="M2390 880 c-163 -30 -298 -229 -284 -418 11 -150 119 -247 274 -246
90 0 136 21 207 92 144 145 169 392 50 498 -63 56 -171 89 -247 74z m142 -106
c61 -32 81 -105 53 -200 -62 -215 -180 -316 -295 -256 -75 40 -86 131 -34 270
66 178 164 244 276 186z"/>
<path d="M3516 663 c-1 -1 -16 -3 -33 -5 l-31 -2 5 -141 c3 -77 6 -224 7 -328
l0 -187 161 4 c88 3 174 5 191 5 28 1 30 3 28 33 -1 18 -3 39 -3 46 -1 10 -28
12 -121 10 -114 -3 -121 -2 -126 17 -2 11 -5 140 -7 287 l-2 268 -33 -3 c-19
-1 -35 -3 -36 -4z"/>
</g>
</svg>
